<?xml version="1.0" encoding="UTF-8" standalone="yes"?>
<!-- Created with qrencode 3.4.4 (http://fukuchi.org/works/qrencode/index.html.en) -->
<svg width="8.68cm" height="8.68cm" viewBox="0 0 41 41" preserveAspectRatio="none" version="1.1" xmlns="http://www.w3.org/2000/svg">
	<g id="QRcode">
		<rect x="0" y="0" width="41" height="41" fill="#ffffff" />
		<g id="Pattern">
			<rect x="4" y="4" width="1" height="1" fill="#000000" />
			<rect x="5" y="4" width="1" height="1" fill="#000000" />
			<rect x="6" y="4" width="1" height="1" fill="#000000" />
			<rect x="7" y="4" width="1" height="1" fill="#000000" />
			<rect x="8" y="4" width="1" height="1" fill="#000000" />
			<rect x="9" y="4" width="1" height="1" fill="#000000" />
			<rect x="10" y="4" width="1" height="1" fill="#000000" />
			<rect x="13" y="4" width="1" height="1" fill="#000000" />
			<rect x="19" y="4" width="1" height="1" fill="#000000" />
			<rect x="20" y="4" width="1" height="1" fill="#000000" />
			<rect x="23" y="4" width="1" height="1" fill="#000000" />
			<rect x="27" y="4" width="1" height="1" fill="#000000" />
			<rect x="30" y="4" width="1" height="1" fill="#000000" />
			<rect x="31" y="4" width="1" height="1" fill="#000000" />
			<rect x="32" y="4" width="1" height="1" fill="#000000" />
			<rect x="33" y="4" width="1" height="1" fill="#000000" />
			<rect x="34" y="4" width="1" height="1" fill="#000000" />
			<rect x="35" y="4" width="1" height="1" fill="#000000" />
			<rect x="36" y="4" width="1" height="1" fill="#000000" />
			<rect x="4" y="5" width="1" height="1" fill="#000000" />
			<rect x="10" y="5" width="1" height="1" fill="#000000" />
			<rect x="12" y="5" width="1" height="1" fill="#000000" />
			<rect x="13" y="5" width="1" height="1" fill="#000000" />
			<rect x="15" y="5" width="1" height="1" fill="#000000" />
			<rect x="16" y="5" width="1" height="1" fill="#000000" />
			<rect x="21" y="5" width="1" height="1" fill="#000000" />
			<rect x="22" y="5" width="1" height="1" fill="#000000" />
			<rect x="25" y="5" width="1" height="1" fill="#000000" />
			<rect x="26" y="5" width="1" height="1" fill="#000000" />
			<rect x="28" y="5" width="1" height="1" fill="#000000" />
			<rect x="30" y="5" width="1" height="1" fill="#000000" />
			<rect x="36" y="5" width="1" height="1" fill="#000000" />
			<rect x="4" y="6" width="1" height="1" fill="#000000" />
			<rect x="6" y="6" width="1" height="1" fill="#000000" />
			<rect x="7" y="6" width="1" height="1" fill="#000000" />
			<rect x="8" y="6" width="1" height="1" fill="#000000" />
			<rect x="10" y="6" width="1" height="1" fill="#000000" />
			<rect x="13" y="6" width="1" height="1" fill="#000000" />
			<rect x="14" y="6" width="1" height="1" fill="#000000" />
			<rect x="15" y="6" width="1" height="1" fill="#000000" />
			<rect x="18" y="6" width="1" height="1" fill="#000000" />
			<rect x="20" y="6" width="1" height="1" fill="#000000" />
			<rect x="24" y="6" width="1" height="1" fill="#000000" />
			<rect x="25" y="6" width="1" height="1" fill="#000000" />
			<rect x="30" y="6" width="1" height="1" fill="#000000" />
			<rect x="32" y="6" width="1" height="1" fill="#000000" />
			<rect x="33" y="6" width="1" height="1" fill="#000000" />
			<rect x="34" y="6" width="1" height="1" fill="#000000" />
			<rect x="36" y="6" width="1" height="1" fill="#000000" />
			<rect x="4" y="7" width="1" height="1" fill="#000000" />
			<rect x="6" y="7" width="1" height="1" fill="#000000" />
			<rect x="7" y="7" width="1" height="1" fill="#000000" />
			<rect x="8" y="7" width="1" height="1" fill="#000000" />
			<rect x="10" y="7" width="1" height="1" fill="#000000" />
			<rect x="12" y="7" width="1" height="1" fill="#000000" />
			<rect x="13" y="7" width="1" height="1" fill="#000000" />
			<rect x="15" y="7" width="1" height="1" fill="#000000" />
			<rect x="20" y="7" width="1" height="1" fill="#000000" />
			<rect x="21" y="7" width="1" height="1" fill="#000000" />
			<rect x="22" y="7" width="1" height="1" fill="#000000" />
			<rect x="24" y="7" width="1" height="1" fill="#000000" />
			<rect x="26" y="7" width="1" height="1" fill="#000000" />
			<rect x="28" y="7" width="1" height="1" fill="#000000" />
			<rect x="30" y="7" width="1" height="1" fill="#000000" />
			<rect x="32" y="7" width="1" height="1" fill="#000000" />
			<rect x="33" y="7" width="1" height="1" fill="#000000" />
			<rect x="34" y="7" width="1" height="1" fill="#000000" />
			<rect x="36" y="7" width="1" height="1" fill="#000000" />
			<rect x="4" y="8" width="1" height="1" fill="#000000" />
			<rect x="6" y="8" width="1" height="1" fill="#000000" />
			<rect x="7" y="8" width="1" height="1" fill="#000000" />
			<rect x="8" y="8" width="1" height="1" fill="#000000" />
			<rect x="10" y="8" width="1" height="1" fill="#000000" />
			<rect x="14" y="8" width="1" height="1" fill="#000000" />
			<rect x="16" y="8" width="1" height="1" fill="#000000" />
			<rect x="17" y="8" width="1" height="1" fill="#000000" />
			<rect x="18" y="8" width="1" height="1" fill="#000000" />
			<rect x="19" y="8" width="1" height="1" fill="#000000" />
			<rect x="23" y="8" width="1" height="1" fill="#000000" />
			<rect x="26" y="8" width="1" height="1" fill="#000000" />
			<rect x="27" y="8" width="1" height="1" fill="#000000" />
			<rect x="30" y="8" width="1" height="1" fill="#000000" />
			<rect x="32" y="8" width="1" height="1" fill="#000000" />
			<rect x="33" y="8" width="1" height="1" fill="#000000" />
			<rect x="34" y="8" width="1" height="1" fill="#000000" />
			<rect x="36" y="8" width="1" height="1" fill="#000000" />
			<rect x="4" y="9" width="1" height="1" fill="#000000" />
			<rect x="10" y="9" width="1" height="1" fill="#000000" />
			<rect x="12" y="9" width="1" height="1" fill="#000000" />
			<rect x="14" y="9" width="1" height="1" fill="#000000" />
			<rect x="17" y="9" width="1" height="1" fill="#000000" />
			<rect x="18" y="9" width="1" height="1" fill="#000000" />
			<rect x="19" y="9" width="1" height="1" fill="#000000" />
			<rect x="20" y="9" width="1" height="1" fill="#000000" />
			<rect x="21" y="9" width="1" height="1" fill="#000000" />
			<rect x="22" y="9" width="1" height="1" fill="#000000" />
			<rect x="24" y="9" width="1" height="1" fill="#000000" />
			<rect x="28" y="9" width="1" height="1" fill="#000000" />
			<rect x="30" y="9" width="1" height="1" fill="#000000" />
			<rect x="36" y="9" width="1" height="1" fill="#000000" />
			<rect x="4" y="10" width="1" height="1" fill="#000000" />
			<rect x="5" y="10" width="1" height="1" fill="#000000" />
			<rect x="6" y="10" width="1" height="1" fill="#000000" />
			<rect x="7" y="10" width="1" height="1" fill="#000000" />
			<rect x="8" y="10" width="1" height="1" fill="#000000" />
			<rect x="9" y="10" width="1" height="1" fill="#000000" />
			<rect x="10" y="10" width="1" height="1" fill="#000000" />
			<rect x="12" y="10" width="1" height="1" fill="#000000" />
			<rect x="14" y="10" width="1" height="1" fill="#000000" />
			<rect x="16" y="10" width="1" height="1" fill="#000000" />
			<rect x="18" y="10" width="1" height="1" fill="#000000" />
			<rect x="20" y="10" width="1" height="1" fill="#000000" />
			<rect x="22" y="10" width="1" height="1" fill="#000000" />
			<rect x="24" y="10" width="1" height="1" fill="#000000" />
			<rect x="26" y="10" width="1" height="1" fill="#000000" />
			<rect x="28" y="10" width="1" height="1" fill="#000000" />
			<rect x="30" y="10" width="1" height="1" fill="#000000" />
			<rect x="31" y="10" width="1" height="1" fill="#000000" />
			<rect x="32" y="10" width="1" height="1" fill="#000000" />
			<rect x="33" y="10" width="1" height="1" fill="#000000" />
			<rect x="34" y="10" width="1" height="1" fill="#000000" />
			<rect x="35" y="10" width="1" height="1" fill="#000000" />
			<rect x="36" y="10" width="1" height="1" fill="#000000" />
			<rect x="16" y="11" width="1" height="1" fill="#000000" />
			<rect x="17" y="11" width="1" height="1" fill="#000000" />
			<rect x="19" y="11" width="1" height="1" fill="#000000" />
			<rect x="23" y="11" width="1" height="1" fill="#000000" />
			<rect x="24" y="11" width="1" height="1" fill="#000000" />
			<rect x="25" y="11" width="1" height="1" fill="#000000" />
			<rect x="27" y="11" width="1" height="1" fill="#000000" />
			<rect x="4" y="12" width="1" height="1" fill="#000000" />
			<rect x="5" y="12" width="1" height="1" fill="#000000" />
			<rect x="6" y="12" width="1" height="1" fill="#000000" />
			<rect x="7" y="12" width="1" height="1" fill="#000000" />
			<rect x="8" y="12" width="1" height="1" fill="#000000" />
			<rect x="10" y="12" width="1" height="1" fill="#000000" />
			<rect x="11" y="12" width="1" height="1" fill="#000000" />
			<rect x="12" y="12" width="1" height="1" fill="#000000" />
			<rect x="13" y="12" width="1" height="1" fill="#000000" />
			<rect x="14" y="12" width="1" height="1" fill="#000000" />
			<rect x="16" y="12" width="1" height="1" fill="#000000" />
			<rect x="18" y="12" width="1" height="1" fill="#000000" />
			<rect x="19" y="12" width="1" height="1" fill="#000000" />
			<rect x="21" y="12" width="1" height="1" fill="#000000" />
			<rect x="22" y="12" width="1" height="1" fill="#000000" />
			<rect x="24" y="12" width="1" height="1" fill="#000000" />
			<rect x="26" y="12" width="1" height="1" fill="#000000" />
			<rect x="29" y="12" width="1" height="1" fill="#000000" />
			<rect x="31" y="12" width="1" height="1" fill="#000000" />
			<rect x="33" y="12" width="1" height="1" fill="#000000" />
			<rect x="35" y="12" width="1" height="1" fill="#000000" />
			<rect x="4" y="13" width="1" height="1" fill="#000000" />
			<rect x="5" y="13" width="1" height="1" fill="#000000" />
			<rect x="6" y="13" width="1" height="1" fill="#000000" />
			<rect x="7" y="13" width="1" height="1" fill="#000000" />
			<rect x="8" y="13" width="1" height="1" fill="#000000" />
			<rect x="9" y="13" width="1" height="1" fill="#000000" />
			<rect x="11" y="13" width="1" height="1" fill="#000000" />
			<rect x="12" y="13" width="1" height="1" fill="#000000" />
			<rect x="13" y="13" width="1" height="1" fill="#000000" />
			<rect x="19" y="13" width="1" height="1" fill="#000000" />
			<rect x="20" y="13" width="1" height="1" fill="#000000" />
			<rect x="23" y="13" width="1" height="1" fill="#000000" />
			<rect x="25" y="13" width="1" height="1" fill="#000000" />
			<rect x="27" y="13" width="1" height="1" fill="#000000" />
			<rect x="28" y="13" width="1" height="1" fill="#000000" />
			<rect x="29" y="13" width="1" height="1" fill="#000000" />
			<rect x="30" y="13" width="1" height="1" fill="#000000" />
			<rect x="33" y="13" width="1" height="1" fill="#000000" />
			<rect x="36" y="13" width="1" height="1" fill="#000000" />
			<rect x="4" y="14" width="1" height="1" fill="#000000" />
			<rect x="6" y="14" width="1" height="1" fill="#000000" />
			<rect x="9" y="14" width="1" height="1" fill="#000000" />
			<rect x="10" y="14" width="1" height="1" fill="#000000" />
			<rect x="12" y="14" width="1" height="1" fill="#000000" />
			<rect x="13" y="14" width="1" height="1" fill="#000000" />
			<rect x="15" y="14" width="1" height="1" fill="#000000" />
			<rect x="16" y="14" width="1" height="1" fill="#000000" />
			<rect x="26" y="14" width="1" height="1" fill="#000000" />
			<rect x="28" y="14" width="1" height="1" fill="#000000" />
			<rect x="31" y="14" width="1" height="1" fill="#000000" />
			<rect x="32" y="14" width="1" height="1" fill="#000000" />
			<rect x="33" y="14" width="1" height="1" fill="#000000" />
			<rect x="35" y="14" width="1" height="1" fill="#000000" />
			<rect x="4" y="15" width="1" height="1" fill="#000000" />
			<rect x="5" y="15" width="1" height="1" fill="#000000" />
			<rect x="7" y="15" width="1" height="1" fill="#000000" />
			<rect x="8" y="15" width="1" height="1" fill="#000000" />
			<rect x="9" y="15" width="1" height="1" fill="#000000" />
			<rect x="13" y="15" width="1" height="1" fill="#000000" />
			<rect x="14" y="15" width="1" height="1" fill="#000000" />
			<rect x="15" y="15" width="1" height="1" fill="#000000" />
			<rect x="18" y="15" width="1" height="1" fill="#000000" />
			<rect x="20" y="15" width="1" height="1" fill="#000000" />
			<rect x="25" y="15" width="1" height="1" fill="#000000" />
			<rect x="26" y="15" width="1" height="1" fill="#000000" />
			<rect x="28" y="15" width="1" height="1" fill="#000000" />
			<rect x="29" y="15" width="1" height="1" fill="#000000" />
			<rect x="30" y="15" width="1" height="1" fill="#000000" />
			<rect x="33" y="15" width="1" height="1" fill="#000000" />
			<rect x="34" y="15" width="1" height="1" fill="#000000" />
			<rect x="35" y="15" width="1" height="1" fill="#000000" />
			<rect x="36" y="15" width="1" height="1" fill="#000000" />
			<rect x="9" y="16" width="1" height="1" fill="#000000" />
			<rect x="10" y="16" width="1" height="1" fill="#000000" />
			<rect x="12" y="16" width="1" height="1" fill="#000000" />
			<rect x="13" y="16" width="1" height="1" fill="#000000" />
			<rect x="15" y="16" width="1" height="1" fill="#000000" />
			<rect x="20" y="16" width="1" height="1" fill="#000000" />
			<rect x="21" y="16" width="1" height="1" fill="#000000" />
			<rect x="23" y="16" width="1" height="1" fill="#000000" />
			<rect x="29" y="16" width="1" height="1" fill="#000000" />
			<rect x="32" y="16" width="1" height="1" fill="#000000" />
			<rect x="4" y="17" width="1" height="1" fill="#000000" />
			<rect x="5" y="17" width="1" height="1" fill="#000000" />
			<rect x="7" y="17" width="1" height="1" fill="#000000" />
			<rect x="11" y="17" width="1" height="1" fill="#000000" />
			<rect x="12" y="17" width="1" height="1" fill="#000000" />
			<rect x="13" y="17" width="1" height="1" fill="#000000" />
			<rect x="14" y="17" width="1" height="1" fill="#000000" />
			<rect x="16" y="17" width="1" height="1" fill="#000000" />
			<rect x="17" y="17" width="1" height="1" fill="#000000" />
			<rect x="18" y="17" width="1" height="1" fill="#000000" />
			<rect x="19" y="17" width="1" height="1" fill="#000000" />
			<rect x="23" y="17" width="1" height="1" fill="#000000" />
			<rect x="24" y="17" width="1" height="1" fill="#000000" />
			<rect x="25" y="17" width="1" height="1" fill="#000000" />
			<rect x="26" y="17" width="1" height="1" fill="#000000" />
			<rect x="27" y="17" width="1" height="1" fill="#000000" />
			<rect x="30" y="17" width="1" height="1" fill="#000000" />
			<rect x="31" y="17" width="1" height="1" fill="#000000" />
			<rect x="36" y="17" width="1" height="1" fill="#000000" />
			<rect x="4" y="18" width="1" height="1" fill="#000000" />
			<rect x="5" y="18" width="1" height="1" fill="#000000" />
			<rect x="10" y="18" width="1" height="1" fill="#000000" />
			<rect x="12" y="18" width="1" height="1" fill="#000000" />
			<rect x="13" y="18" width="1" height="1" fill="#000000" />
			<rect x="17" y="18" width="1" height="1" fill="#000000" />
			<rect x="18" y="18" width="1" height="1" fill="#000000" />
			<rect x="19" y="18" width="1" height="1" fill="#000000" />
			<rect x="20" y="18" width="1" height="1" fill="#000000" />
			<rect x="24" y="18" width="1" height="1" fill="#000000" />
			<rect x="26" y="18" width="1" height="1" fill="#000000" />
			<rect x="28" y="18" width="1" height="1" fill="#000000" />
			<rect x="29" y="18" width="1" height="1" fill="#000000" />
			<rect x="30" y="18" width="1" height="1" fill="#000000" />
			<rect x="33" y="18" width="1" height="1" fill="#000000" />
			<rect x="34" y="18" width="1" height="1" fill="#000000" />
			<rect x="35" y="18" width="1" height="1" fill="#000000" />
			<rect x="7" y="19" width="1" height="1" fill="#000000" />
			<rect x="9" y="19" width="1" height="1" fill="#000000" />
			<rect x="12" y="19" width="1" height="1" fill="#000000" />
			<rect x="13" y="19" width="1" height="1" fill="#000000" />
			<rect x="16" y="19" width="1" height="1" fill="#000000" />
			<rect x="17" y="19" width="1" height="1" fill="#000000" />
			<rect x="19" y="19" width="1" height="1" fill="#000000" />
			<rect x="22" y="19" width="1" height="1" fill="#000000" />
			<rect x="25" y="19" width="1" height="1" fill="#000000" />
			<rect x="26" y="19" width="1" height="1" fill="#000000" />
			<rect x="27" y="19" width="1" height="1" fill="#000000" />
			<rect x="30" y="19" width="1" height="1" fill="#000000" />
			<rect x="31" y="19" width="1" height="1" fill="#000000" />
			<rect x="33" y="19" width="1" height="1" fill="#000000" />
			<rect x="34" y="19" width="1" height="1" fill="#000000" />
			<rect x="4" y="20" width="1" height="1" fill="#000000" />
			<rect x="5" y="20" width="1" height="1" fill="#000000" />
			<rect x="7" y="20" width="1" height="1" fill="#000000" />
			<rect x="8" y="20" width="1" height="1" fill="#000000" />
			<rect x="9" y="20" width="1" height="1" fill="#000000" />
			<rect x="10" y="20" width="1" height="1" fill="#000000" />
			<rect x="11" y="20" width="1" height="1" fill="#000000" />
			<rect x="12" y="20" width="1" height="1" fill="#000000" />
			<rect x="13" y="20" width="1" height="1" fill="#000000" />
			<rect x="16" y="20" width="1" height="1" fill="#000000" />
			<rect x="18" y="20" width="1" height="1" fill="#000000" />
			<rect x="19" y="20" width="1" height="1" fill="#000000" />
			<rect x="21" y="20" width="1" height="1" fill="#000000" />
			<rect x="24" y="20" width="1" height="1" fill="#000000" />
			<rect x="26" y="20" width="1" height="1" fill="#000000" />
			<rect x="28" y="20" width="1" height="1" fill="#000000" />
			<rect x="29" y="20" width="1" height="1" fill="#000000" />
			<rect x="32" y="20" width="1" height="1" fill="#000000" />
			<rect x="35" y="20" width="1" height="1" fill="#000000" />
			<rect x="7" y="21" width="1" height="1" fill="#000000" />
			<rect x="9" y="21" width="1" height="1" fill="#000000" />
			<rect x="11" y="21" width="1" height="1" fill="#000000" />
			<rect x="13" y="21" width="1" height="1" fill="#000000" />
			<rect x="19" y="21" width="1" height="1" fill="#000000" />
			<rect x="20" y="21" width="1" height="1" fill="#000000" />
			<rect x="21" y="21" width="1" height="1" fill="#000000" />
			<rect x="23" y="21" width="1" height="1" fill="#000000" />
			<rect x="24" y="21" width="1" height="1" fill="#000000" />
			<rect x="25" y="21" width="1" height="1" fill="#000000" />
			<rect x="26" y="21" width="1" height="1" fill="#000000" />
			<rect x="27" y="21" width="1" height="1" fill="#000000" />
			<rect x="29" y="21" width="1" height="1" fill="#000000" />
			<rect x="30" y="21" width="1" height="1" fill="#000000" />
			<rect x="33" y="21" width="1" height="1" fill="#000000" />
			<rect x="35" y="21" width="1" height="1" fill="#000000" />
			<rect x="36" y="21" width="1" height="1" fill="#000000" />
			<rect x="4" y="22" width="1" height="1" fill="#000000" />
			<rect x="6" y="22" width="1" height="1" fill="#000000" />
			<rect x="9" y="22" width="1" height="1" fill="#000000" />
			<rect x="10" y="22" width="1" height="1" fill="#000000" />
			<rect x="11" y="22" width="1" height="1" fill="#000000" />
			<rect x="14" y="22" width="1" height="1" fill="#000000" />
			<rect x="15" y="22" width="1" height="1" fill="#000000" />
			<rect x="16" y="22" width="1" height="1" fill="#000000" />
			<rect x="21" y="22" width="1" height="1" fill="#000000" />
			<rect x="22" y="22" width="1" height="1" fill="#000000" />
			<rect x="24" y="22" width="1" height="1" fill="#000000" />
			<rect x="28" y="22" width="1" height="1" fill="#000000" />
			<rect x="29" y="22" width="1" height="1" fill="#000000" />
			<rect x="31" y="22" width="1" height="1" fill="#000000" />
			<rect x="35" y="22" width="1" height="1" fill="#000000" />
			<rect x="5" y="23" width="1" height="1" fill="#000000" />
			<rect x="11" y="23" width="1" height="1" fill="#000000" />
			<rect x="12" y="23" width="1" height="1" fill="#000000" />
			<rect x="15" y="23" width="1" height="1" fill="#000000" />
			<rect x="18" y="23" width="1" height="1" fill="#000000" />
			<rect x="20" y="23" width="1" height="1" fill="#000000" />
			<rect x="22" y="23" width="1" height="1" fill="#000000" />
			<rect x="25" y="23" width="1" height="1" fill="#000000" />
			<rect x="26" y="23" width="1" height="1" fill="#000000" />
			<rect x="27" y="23" width="1" height="1" fill="#000000" />
			<rect x="28" y="23" width="1" height="1" fill="#000000" />
			<rect x="30" y="23" width="1" height="1" fill="#000000" />
			<rect x="31" y="23" width="1" height="1" fill="#000000" />
			<rect x="33" y="23" width="1" height="1" fill="#000000" />
			<rect x="34" y="23" width="1" height="1" fill="#000000" />
			<rect x="35" y="23" width="1" height="1" fill="#000000" />
			<rect x="6" y="24" width="1" height="1" fill="#000000" />
			<rect x="8" y="24" width="1" height="1" fill="#000000" />
			<rect x="10" y="24" width="1" height="1" fill="#000000" />
			<rect x="12" y="24" width="1" height="1" fill="#000000" />
			<rect x="15" y="24" width="1" height="1" fill="#000000" />
			<rect x="21" y="24" width="1" height="1" fill="#000000" />
			<rect x="23" y="24" width="1" height="1" fill="#000000" />
			<rect x="24" y="24" width="1" height="1" fill="#000000" />
			<rect x="32" y="24" width="1" height="1" fill="#000000" />
			<rect x="36" y="24" width="1" height="1" fill="#000000" />
			<rect x="4" y="25" width="1" height="1" fill="#000000" />
			<rect x="7" y="25" width="1" height="1" fill="#000000" />
			<rect x="8" y="25" width="1" height="1" fill="#000000" />
			<rect x="9" y="25" width="1" height="1" fill="#000000" />
			<rect x="11" y="25" width="1" height="1" fill="#000000" />
			<rect x="12" y="25" width="1" height="1" fill="#000000" />
			<rect x="13" y="25" width="1" height="1" fill="#000000" />
			<rect x="16" y="25" width="1" height="1" fill="#000000" />
			<rect x="17" y="25" width="1" height="1" fill="#000000" />
			<rect x="18" y="25" width="1" height="1" fill="#000000" />
			<rect x="19" y="25" width="1" height="1" fill="#000000" />
			<rect x="23" y="25" width="1" height="1" fill="#000000" />
			<rect x="24" y="25" width="1" height="1" fill="#000000" />
			<rect x="25" y="25" width="1" height="1" fill="#000000" />
			<rect x="26" y="25" width="1" height="1" fill="#000000" />
			<rect x="27" y="25" width="1" height="1" fill="#000000" />
			<rect x="28" y="25" width="1" height="1" fill="#000000" />
			<rect x="29" y="25" width="1" height="1" fill="#000000" />
			<rect x="30" y="25" width="1" height="1" fill="#000000" />
			<rect x="34" y="25" width="1" height="1" fill="#000000" />
			<rect x="36" y="25" width="1" height="1" fill="#000000" />
			<rect x="4" y="26" width="1" height="1" fill="#000000" />
			<rect x="6" y="26" width="1" height="1" fill="#000000" />
			<rect x="10" y="26" width="1" height="1" fill="#000000" />
			<rect x="12" y="26" width="1" height="1" fill="#000000" />
			<rect x="14" y="26" width="1" height="1" fill="#000000" />
			<rect x="17" y="26" width="1" height="1" fill="#000000" />
			<rect x="18" y="26" width="1" height="1" fill="#000000" />
			<rect x="19" y="26" width="1" height="1" fill="#000000" />
			<rect x="20" y="26" width="1" height="1" fill="#000000" />
			<rect x="21" y="26" width="1" height="1" fill="#000000" />
			<rect x="25" y="26" width="1" height="1" fill="#000000" />
			<rect x="28" y="26" width="1" height="1" fill="#000000" />
			<rect x="29" y="26" width="1" height="1" fill="#000000" />
			<rect x="31" y="26" width="1" height="1" fill="#000000" />
			<rect x="32" y="26" width="1" height="1" fill="#000000" />
			<rect x="33" y="26" width="1" height="1" fill="#000000" />
			<rect x="35" y="26" width="1" height="1" fill="#000000" />
			<rect x="4" y="27" width="1" height="1" fill="#000000" />
			<rect x="14" y="27" width="1" height="1" fill="#000000" />
			<rect x="16" y="27" width="1" height="1" fill="#000000" />
			<rect x="17" y="27" width="1" height="1" fill="#000000" />
			<rect x="19" y="27" width="1" height="1" fill="#000000" />
			<rect x="22" y="27" width="1" height="1" fill="#000000" />
			<rect x="25" y="27" width="1" height="1" fill="#000000" />
			<rect x="28" y="27" width="1" height="1" fill="#000000" />
			<rect x="29" y="27" width="1" height="1" fill="#000000" />
			<rect x="31" y="27" width="1" height="1" fill="#000000" />
			<rect x="32" y="27" width="1" height="1" fill="#000000" />
			<rect x="33" y="27" width="1" height="1" fill="#000000" />
			<rect x="34" y="27" width="1" height="1" fill="#000000" />
			<rect x="36" y="27" width="1" height="1" fill="#000000" />
			<rect x="4" y="28" width="1" height="1" fill="#000000" />
			<rect x="6" y="28" width="1" height="1" fill="#000000" />
			<rect x="7" y="28" width="1" height="1" fill="#000000" />
			<rect x="10" y="28" width="1" height="1" fill="#000000" />
			<rect x="13" y="28" width="1" height="1" fill="#000000" />
			<rect x="14" y="28" width="1" height="1" fill="#000000" />
			<rect x="16" y="28" width="1" height="1" fill="#000000" />
			<rect x="18" y="28" width="1" height="1" fill="#000000" />
			<rect x="19" y="28" width="1" height="1" fill="#000000" />
			<rect x="20" y="28" width="1" height="1" fill="#000000" />
			<rect x="21" y="28" width="1" height="1" fill="#000000" />
			<rect x="23" y="28" width="1" height="1" fill="#000000" />
			<rect x="24" y="28" width="1" height="1" fill="#000000" />
			<rect x="26" y="28" width="1" height="1" fill="#000000" />
			<rect x="27" y="28" width="1" height="1" fill="#000000" />
			<rect x="28" y="28" width="1" height="1" fill="#000000" />
			<rect x="29" y="28" width="1" height="1" fill="#000000" />
			<rect x="30" y="28" width="1" height="1" fill="#000000" />
			<rect x="31" y="28" width="1" height="1" fill="#000000" />
			<rect x="32" y="28" width="1" height="1" fill="#000000" />
			<rect x="12" y="29" width="1" height="1" fill="#000000" />
			<rect x="20" y="29" width="1" height="1" fill="#000000" />
			<rect x="23" y="29" width="1" height="1" fill="#000000" />
			<rect x="27" y="29" width="1" height="1" fill="#000000" />
			<rect x="28" y="29" width="1" height="1" fill="#000000" />
			<rect x="32" y="29" width="1" height="1" fill="#000000" />
			<rect x="34" y="29" width="1" height="1" fill="#000000" />
			<rect x="36" y="29" width="1" height="1" fill="#000000" />
			<rect x="4" y="30" width="1" height="1" fill="#000000" />
			<rect x="5" y="30" width="1" height="1" fill="#000000" />
			<rect x="6" y="30" width="1" height="1" fill="#000000" />
			<rect x="7" y="30" width="1" height="1" fill="#000000" />
			<rect x="8" y="30" width="1" height="1" fill="#000000" />
			<rect x="9" y="30" width="1" height="1" fill="#000000" />
			<rect x="10" y="30" width="1" height="1" fill="#000000" />
			<rect x="12" y="30" width="1" height="1" fill="#000000" />
			<rect x="15" y="30" width="1" height="1" fill="#000000" />
			<rect x="16" y="30" width="1" height="1" fill="#000000" />
			<rect x="19" y="30" width="1" height="1" fill="#000000" />
			<rect x="20" y="30" width="1" height="1" fill="#000000" />
			<rect x="21" y="30" width="1" height="1" fill="#000000" />
			<rect x="24" y="30" width="1" height="1" fill="#000000" />
			<rect x="25" y="30" width="1" height="1" fill="#000000" />
			<rect x="26" y="30" width="1" height="1" fill="#000000" />
			<rect x="27" y="30" width="1" height="1" fill="#000000" />
			<rect x="28" y="30" width="1" height="1" fill="#000000" />
			<rect x="30" y="30" width="1" height="1" fill="#000000" />
			<rect x="32" y="30" width="1" height="1" fill="#000000" />
			<rect x="33" y="30" width="1" height="1" fill="#000000" />
			<rect x="34" y="30" width="1" height="1" fill="#000000" />
			<rect x="35" y="30" width="1" height="1" fill="#000000" />
			<rect x="4" y="31" width="1" height="1" fill="#000000" />
			<rect x="10" y="31" width="1" height="1" fill="#000000" />
			<rect x="13" y="31" width="1" height="1" fill="#000000" />
			<rect x="14" y="31" width="1" height="1" fill="#000000" />
			<rect x="15" y="31" width="1" height="1" fill="#000000" />
			<rect x="18" y="31" width="1" height="1" fill="#000000" />
			<rect x="19" y="31" width="1" height="1" fill="#000000" />
			<rect x="20" y="31" width="1" height="1" fill="#000000" />
			<rect x="22" y="31" width="1" height="1" fill="#000000" />
			<rect x="23" y="31" width="1" height="1" fill="#000000" />
			<rect x="25" y="31" width="1" height="1" fill="#000000" />
			<rect x="26" y="31" width="1" height="1" fill="#000000" />
			<rect x="27" y="31" width="1" height="1" fill="#000000" />
			<rect x="28" y="31" width="1" height="1" fill="#000000" />
			<rect x="32" y="31" width="1" height="1" fill="#000000" />
			<rect x="33" y="31" width="1" height="1" fill="#000000" />
			<rect x="34" y="31" width="1" height="1" fill="#000000" />
			<rect x="36" y="31" width="1" height="1" fill="#000000" />
			<rect x="4" y="32" width="1" height="1" fill="#000000" />
			<rect x="6" y="32" width="1" height="1" fill="#000000" />
			<rect x="7" y="32" width="1" height="1" fill="#000000" />
			<rect x="8" y="32" width="1" height="1" fill="#000000" />
			<rect x="10" y="32" width="1" height="1" fill="#000000" />
			<rect x="12" y="32" width="1" height="1" fill="#000000" />
			<rect x="13" y="32" width="1" height="1" fill="#000000" />
			<rect x="14" y="32" width="1" height="1" fill="#000000" />
			<rect x="15" y="32" width="1" height="1" fill="#000000" />
			<rect x="21" y="32" width="1" height="1" fill="#000000" />
			<rect x="24" y="32" width="1" height="1" fill="#000000" />
			<rect x="28" y="32" width="1" height="1" fill="#000000" />
			<rect x="29" y="32" width="1" height="1" fill="#000000" />
			<rect x="30" y="32" width="1" height="1" fill="#000000" />
			<rect x="31" y="32" width="1" height="1" fill="#000000" />
			<rect x="32" y="32" width="1" height="1" fill="#000000" />
			<rect x="33" y="32" width="1" height="1" fill="#000000" />
			<rect x="35" y="32" width="1" height="1" fill="#000000" />
			<rect x="4" y="33" width="1" height="1" fill="#000000" />
			<rect x="6" y="33" width="1" height="1" fill="#000000" />
			<rect x="7" y="33" width="1" height="1" fill="#000000" />
			<rect x="8" y="33" width="1" height="1" fill="#000000" />
			<rect x="10" y="33" width="1" height="1" fill="#000000" />
			<rect x="12" y="33" width="1" height="1" fill="#000000" />
			<rect x="16" y="33" width="1" height="1" fill="#000000" />
			<rect x="17" y="33" width="1" height="1" fill="#000000" />
			<rect x="18" y="33" width="1" height="1" fill="#000000" />
			<rect x="20" y="33" width="1" height="1" fill="#000000" />
			<rect x="22" y="33" width="1" height="1" fill="#000000" />
			<rect x="23" y="33" width="1" height="1" fill="#000000" />
			<rect x="24" y="33" width="1" height="1" fill="#000000" />
			<rect x="26" y="33" width="1" height="1" fill="#000000" />
			<rect x="27" y="33" width="1" height="1" fill="#000000" />
			<rect x="29" y="33" width="1" height="1" fill="#000000" />
			<rect x="32" y="33" width="1" height="1" fill="#000000" />
			<rect x="34" y="33" width="1" height="1" fill="#000000" />
			<rect x="35" y="33" width="1" height="1" fill="#000000" />
			<rect x="36" y="33" width="1" height="1" fill="#000000" />
			<rect x="4" y="34" width="1" height="1" fill="#000000" />
			<rect x="6" y="34" width="1" height="1" fill="#000000" />
			<rect x="7" y="34" width="1" height="1" fill="#000000" />
			<rect x="8" y="34" width="1" height="1" fill="#000000" />
			<rect x="10" y="34" width="1" height="1" fill="#000000" />
			<rect x="12" y="34" width="1" height="1" fill="#000000" />
			<rect x="17" y="34" width="1" height="1" fill="#000000" />
			<rect x="18" y="34" width="1" height="1" fill="#000000" />
			<rect x="19" y="34" width="1" height="1" fill="#000000" />
			<rect x="20" y="34" width="1" height="1" fill="#000000" />
			<rect x="21" y="34" width="1" height="1" fill="#000000" />
			<rect x="25" y="34" width="1" height="1" fill="#000000" />
			<rect x="28" y="34" width="1" height="1" fill="#000000" />
			<rect x="30" y="34" width="1" height="1" fill="#000000" />
			<rect x="31" y="34" width="1" height="1" fill="#000000" />
			<rect x="33" y="34" width="1" height="1" fill="#000000" />
			<rect x="4" y="35" width="1" height="1" fill="#000000" />
			<rect x="10" y="35" width="1" height="1" fill="#000000" />
			<rect x="12" y="35" width="1" height="1" fill="#000000" />
			<rect x="14" y="35" width="1" height="1" fill="#000000" />
			<rect x="16" y="35" width="1" height="1" fill="#000000" />
			<rect x="17" y="35" width="1" height="1" fill="#000000" />
			<rect x="22" y="35" width="1" height="1" fill="#000000" />
			<rect x="23" y="35" width="1" height="1" fill="#000000" />
			<rect x="25" y="35" width="1" height="1" fill="#000000" />
			<rect x="26" y="35" width="1" height="1" fill="#000000" />
			<rect x="29" y="35" width="1" height="1" fill="#000000" />
			<rect x="31" y="35" width="1" height="1" fill="#000000" />
			<rect x="33" y="35" width="1" height="1" fill="#000000" />
			<rect x="34" y="35" width="1" height="1" fill="#000000" />
			<rect x="4" y="36" width="1" height="1" fill="#000000" />
			<rect x="5" y="36" width="1" height="1" fill="#000000" />
			<rect x="6" y="36" width="1" height="1" fill="#000000" />
			<rect x="7" y="36" width="1" height="1" fill="#000000" />
			<rect x="8" y="36" width="1" height="1" fill="#000000" />
			<rect x="9" y="36" width="1" height="1" fill="#000000" />
			<rect x="10" y="36" width="1" height="1" fill="#000000" />
			<rect x="12" y="36" width="1" height="1" fill="#000000" />
			<rect x="16" y="36" width="1" height="1" fill="#000000" />
			<rect x="18" y="36" width="1" height="1" fill="#000000" />
			<rect x="19" y="36" width="1" height="1" fill="#000000" />
			<rect x="21" y="36" width="1" height="1" fill="#000000" />
			<rect x="23" y="36" width="1" height="1" fill="#000000" />
			<rect x="24" y="36" width="1" height="1" fill="#000000" />
			<rect x="26" y="36" width="1" height="1" fill="#000000" />
			<rect x="27" y="36" width="1" height="1" fill="#000000" />
			<rect x="28" y="36" width="1" height="1" fill="#000000" />
			<rect x="30" y="36" width="1" height="1" fill="#000000" />
			<rect x="31" y="36" width="1" height="1" fill="#000000" />
			<rect x="32" y="36" width="1" height="1" fill="#000000" />
			<rect x="35" y="36" width="1" height="1" fill="#000000" />
		</g>
	</g>
</svg>
